HIERARCHY
ROOT Hips
{
	OFFSET 0.000000 0.000000 0.000000
	CHANNELS 6 Xposition Yposition Zposition Zrotation Yrotation Xrotation 
	JOINT LHipJoint
	{
		OFFSET 0.000000 0.000000 0.000000
		CHANNELS 3 Zrotation Yrotation Xrotation
		JOINT LeftUpLeg
		{
			OFFSET 1.363060 -1.794630 0.839290
			CHANNELS 3 Zrotation Yrotation Xrotation
			JOINT LeftLeg
			{
				OFFSET 2.448110 -6.726130 0.000000
				CHANNELS 3 Zrotation Yrotation Xrotation
				JOINT LeftFoot
				{
					OFFSET 2.562200 -7.039590 0.000000
					CHANNELS 3 Zrotation Yrotation Xrotation
					JOINT LeftToeBase
					{
						OFFSET 0.157640 -0.433110 2.322550
						CHANNELS 3 Zrotation Yrotation Xrotation
						End Site
						{
							OFFSET 0.000000 0.000000 0.000000
						}
					}
				}
			}
		}
	}
	JOINT RHipJoint
	{
		OFFSET 0.000000 0.000000 0.000000
		CHANNELS 3 Zrotation Yrotation Xrotation
		JOINT RightUpLeg
		{
			OFFSET -1.305520 -1.794630 0.839290
			CHANNELS 3 Zrotation Yrotation Xrotation
			JOINT RightLeg
			{
				OFFSET -2.542530 -6.985550 0.000000
				CHANNELS 3 Zrotation Yrotation Xrotation
				JOINT RightFoot
				{
					OFFSET -2.568260 -7.056230 0.000000
					CHANNELS 3 Zrotation Yrotation Xrotation
					JOINT RightToeBase
					{
						OFFSET -0.164730 -0.452590 2.363150
						CHANNELS 3 Zrotation Yrotation Xrotation
						End Site
						{
							OFFSET 0.000000 0.000000 0.000000
						}
					}
				}
			}
		}
	}
}
MOTION
Frames: 33
Frame Time: 0.008333
1.946368 16.812262 -1.715849 179.714063 37.889910 -160.030875 -10.762183 0.463159 -0.578247 -7.143272 -13.396582 -2.837324 -1.823862 0.792284 23.710185 0.174523 -2.324908 -12.153216 0.064000 -0.000000 -42.058600 7.350542 0.384324 1.704750 0.502642 11.322778 -39.399166 2.227011 -0.439250 9.624010 0.687790 4.171798 11.571219 0.883900 -0.000000 -41.625900
2.040300 16.834231 -1.781392 -179.962493 37.173408 -159.710984 -10.979217 0.491689 -0.628945 -6.420102 -12.934373 -3.614074 -1.680213 0.944787 25.115440 0.129388 -2.385531 -11.031346 0.073900 -0.000000 -45.886900 7.243436 0.298583 1.611011 1.123858 11.135198 -39.291125 2.286336 -0.479377 10.268763 0.656322 3.928879 11.045619 0.764900 -0.000001 -40.897300
2.133369 16.859284 -1.844974 -179.657246 36.432429 -159.422587 -11.198025 0.522094 -0.698002 -5.690651 -12.327775 -4.500800 -1.530827 1.101105 26.619761 0.083794 -2.497532 -9.788762 0.076900 0.000000 -49.565300 7.141282 0.218678 1.517946 1.747891 10.924102 -39.081753 2.357071 -0.499586 10.788432 0.625475 3.695214 10.335235 0.642100 0.000000 -40.127400
2.226214 16.886705 -1.906435 -179.382048 35.652669 -159.168245 -11.412968 0.553561 -0.779590 -4.967832 -11.599945 -5.500969 -1.376273 1.258952 28.219520 0.041072 -2.656095 -8.426425 0.066900 0.000000 -53.050501 7.050820 0.146130 1.427162 2.358441 10.675740 -38.774361 2.435052 -0.499973 11.161523 0.593291 3.464310 9.515502 0.519900 -0.000000 -39.318300
2.319572 16.915803 -1.965468 -179.155234 34.824823 -158.954287 -11.617050 0.584578 -0.866460 -4.270658 -10.789996 -6.609779 -1.218371 1.415440 29.910349 0.006131 -2.843561 -6.972764 0.038200 0.000000 -56.078900 6.978962 0.082910 1.338346 2.940326 10.370822 -38.380793 2.515810 -0.482145 11.380094 0.559138 3.235910 8.660232 0.403500 0.000000 -38.481400
2.413617 16.945865 -2.022179 -178.983085 33.940669 -158.779614 -11.805331 0.613141 -0.951749 -3.615961 -9.938458 -7.818350 -1.058061 1.568111 31.683996 -0.016320 -3.033692 -5.455444 -0.012700 0.000000 -58.450000 6.930172 0.029973 1.250243 3.484268 9.992010 -37.916987 2.595999 -0.448498 11.445480 0.523064 3.009288 7.835900 0.296200 -0.000000 -37.641000
2.508564 16.976255 -2.076698 -178.873041 32.998128 -158.643289 -11.973915 0.637113 -1.029619 -3.017973 -9.086054 -9.113641 -0.896456 1.714813 33.527714 -0.022178 -3.192818 -3.906412 -0.085200 -0.000000 -60.022100 6.907133 -0.012306 1.160799 3.984889 9.526042 -37.401333 2.672735 -0.401987 11.367281 0.485812 2.784497 7.095443 0.199499 -0.000000 -36.834400
2.604237 17.006469 -2.129277 -178.823388 31.998357 -158.540893 -12.121632 0.654354 -1.095351 -2.485727 -8.265888 -10.481218 -0.734234 1.853995 35.426726 -0.008327 -3.281971 -2.358182 -0.173800 0.000000 -60.751800 6.909361 -0.044964 1.068629 4.442479 8.967620 -36.851678 2.744412 -0.345601 11.161043 0.448273 2.559840 6.476069 0.112700 0.000000 -36.106200
2.700238 17.036112 -2.180221 -178.832656 30.950542 -158.470767 -12.246261 0.662892 -1.147025 -2.034190 -7.511991 -11.892148 -0.573701 1.984171 37.355716 0.026678 -3.261635 -0.858495 -0.266799 0.000000 -60.605100 6.935838 -0.068095 0.970332 4.853583 8.316627 -36.282778 2.809490 -0.283297 10.853417 0.411795 2.339387 5.991200 0.035600 -0.000000 -35.499700
2.795829 17.064789 -2.230180 -178.880203 29.858287 -158.414343 -12.353545 0.659748 -1.183367 -1.646349 -6.828304 -13.351451 -0.414427 2.106114 39.316172 0.083712 -3.091638 0.556558 -0.348400 0.000000 -59.506200 6.978802 -0.085687 0.867514 5.236777 7.587135 -35.711114 2.870121 -0.215747 10.457545 0.376242 2.113443 5.646370 -0.036500 -0.000000 -35.047600
2.890594 17.092467 -2.279262 -178.967836 28.742920 -158.379046 -12.441103 0.644699 -1.206887 -1.341764 -6.236182 -14.813085 -0.260327 2.218876 41.267009 0.161317 -2.741401 1.834183 -0.399500 0.000001 -57.612500 7.035826 -0.097072 0.756692 5.583181 6.793354 -35.141208 2.924713 -0.147136 10.010982 0.342535 1.891212 5.414416 -0.102899 0.000000 -34.764399
2.983852 17.119015 -2.327861 -179.080541 27.618027 -158.357673 -12.513334 0.617042 -1.219752 -1.110524 -5.729501 -16.264815 -0.112593 2.323532 43.195938 0.258068 -2.187625 2.933396 -0.402300 0.000001 -54.950100 7.099462 -0.105078 0.639909 5.902621 5.960340 -34.577842 2.974618 -0.078291 9.534649 0.309939 1.668178 5.267533 -0.166800 -0.000000 -34.643800
3.075098 17.144469 -2.376200 -179.208718 26.501274 -158.347487 -12.572857 0.576661 -1.226594 -0.947989 -5.299822 -17.686519 0.027155 2.421124 45.081443 0.372366 -1.418549 3.823570 -0.343600 -0.000000 -51.694600 7.163738 -0.110932 0.517818 6.199617 5.115320 -34.021346 3.020359 -0.010291 9.051493 0.277552 1.443087 5.167520 -0.229500 0.000000 -34.659600
3.163849 17.168871 -2.424440 -179.341750 25.408310 -158.347451 -12.622483 0.524471 -1.231338 -0.848382 -4.934024 -19.060603 0.157739 2.512661 46.904093 0.502710 -0.436442 4.483563 -0.217600 0.000001 -48.024200 7.223349 -0.116191 0.392936 6.477496 4.286558 -33.468453 3.062171 0.056357 8.579938 0.244016 1.212397 5.077619 -0.292499 -0.000000 -34.770400
3.249855 17.192328 -2.472672 -179.472487 24.354084 -158.356925 -12.664284 0.461630 -1.238274 -0.805236 -4.617816 -20.372517 0.278182 2.599117 48.645425 0.647859 0.742638 4.906444 -0.027400 -0.000000 -44.155500 7.274368 -0.121618 0.267660 6.738449 3.500673 -32.915801 3.099857 0.121553 8.133118 0.207749 0.971502 4.965250 -0.356900 0.000000 -34.927000
3.333174 17.214891 -2.520889 -179.597639 23.349633 -158.377715 -12.699538 0.390225 -1.249977 -0.812436 -4.338000 -21.611229 0.387744 2.681009 50.289410 0.806387 2.088516 5.096743 0.215201 -0.000000 -40.293700 7.314762 -0.128122 0.145623 6.982700 2.780398 -32.357492 3.132445 0.185533 7.717431 0.166969 0.713470 4.808684 -0.424000 0.000000 -35.079600
3.413805 17.236623 -2.569138 -179.713124 22.402832 -158.409064 -12.728883 0.312356 -1.268539 -0.865033 -4.084168 -22.769077 0.485994 2.758615 51.822343 0.976546 3.560405 5.072257 0.492100 -0.000000 -36.647901 7.344008 -0.135864 0.029494 7.209555 2.142004 -31.789917 3.159025 0.248479 7.335047 0.120194 0.432327 4.596502 -0.494400 0.000000 -35.181700
3.492110 17.257538 -2.617375 -179.820188 21.517775 -158.452010 -12.752141 0.230567 -1.294550 -0.958214 -3.848873 -23.843172 0.572460 2.831917 53.234350 1.155513 5.108176 4.856701 0.781500 -0.000000 -33.366900 7.363284 -0.144827 -0.077773 7.416980 1.595850 -31.210243 3.178157 0.310673 6.982434 0.066047 0.121102 4.329713 -0.568700 0.000000 -35.196500
3.568385 17.277614 -2.665629 -179.920880 20.695459 -158.506291 -12.768466 0.147580 -1.327716 -1.090060 -3.628662 -24.833698 0.646788 2.900687 54.518753 1.339335 6.677312 4.478414 1.060900 0.000000 -30.538901 7.375243 -0.154342 -0.174964 7.602577 1.141851 -30.619661 3.188920 0.371772 6.656794 0.004225 -0.221360 4.016656 -0.646100 0.000000 -35.097300
3.643163 17.296821 -2.713881 179.979629 19.933495 -158.572267 -12.776848 0.066210 -1.366339 -1.257734 -3.422742 -25.744339 0.708734 2.964461 55.671259 1.522920 8.212080 3.968062 1.310100 0.000000 -28.193899 7.383138 -0.163977 -0.260867 7.764239 0.774959 -30.019810 3.190364 0.431531 6.351582 -0.065322 -0.596537 3.673788 -0.726200 0.000000 -34.873599
3.716723 17.315123 -2.762225 179.878263 19.226987 -158.649152 -12.776374 -0.010911 -1.407827 -1.460066 -3.233706 -26.579901 0.758390 3.022530 56.689054 1.700538 9.660433 3.358378 1.513500 -0.000000 -26.319900 7.390443 -0.173164 -0.335530 7.899862 0.482792 -29.414626 3.182375 0.489378 6.061161 -0.141619 -1.000674 3.319844 -0.807900 0.000000 -34.529100
3.789421 17.332444 -2.810725 179.770664 18.570189 -158.735378 -12.766294 -0.081715 -1.449513 -1.695139 -3.065520 -27.347048 0.795929 3.074235 57.570780 1.866363 10.977465 2.682178 1.661600 0.000000 -24.876500 7.400325 -0.181253 -0.400302 8.009161 0.249190 -28.809782 3.165431 0.544591 5.781318 -0.223019 -1.426780 2.972971 -0.889800 -0.000000 -34.081000
3.861445 17.348773 -2.859498 179.653178 17.956571 -158.829317 -12.746012 -0.144486 -1.488166 -1.962055 -2.924243 -28.052096 0.821746 3.118675 58.315086 2.015136 12.128572 1.971734 1.751700 0.000000 -23.807200 7.415681 -0.187679 -0.457460 8.092295 0.053776 -28.211635 3.140712 0.596250 5.510930 -0.307079 -1.863158 2.646796 -0.969999 -0.000000 -33.556500
3.932890 17.364092 -2.908641 179.524443 17.379286 -158.930618 -12.716031 -0.198048 -1.520220 -2.257288 -2.814891 -28.700269 0.836452 3.155000 58.921578 2.142529 13.089749 1.255713 1.786700 0.000000 -23.043799 7.437768 -0.192710 -0.508256 8.150942 -0.119758 -27.623054 3.109673 0.644179 5.246379 -0.391661 -2.300484 2.351101 -1.047300 0.000000 -32.991800
4.003664 17.378385 -2.958298 179.383508 16.833306 -159.036195 -12.676485 -0.242213 -1.543511 -2.579203 -2.742732 -29.296769 0.840554 3.182507 59.389372 2.245940 13.851233 0.559038 1.774500 0.000000 -22.519200 7.467765 -0.195712 -0.556687 8.187776 -0.292433 -27.051452 3.074777 0.687434 4.993087 -0.473450 -2.720402 2.085366 -1.118500 0.000000 -32.419800
4.073750 17.391701 -3.008570 179.230610 16.314471 -159.144882 -12.628576 -0.277304 -1.555925 -2.922383 -2.709916 -29.845849 0.834578 3.200733 59.718600 2.324187 14.413452 -0.101084 1.724900 -0.000000 -22.156600 7.504912 -0.197166 -0.604127 8.206930 -0.474285 -26.497414 3.037932 0.726460 4.749516 -0.550628 -3.113715 1.846553 -1.182300 -0.000000 -31.872800
4.142949 17.404040 -3.059496 179.066931 15.819147 -159.256030 -12.573134 -0.303875 -1.555555 -3.284131 -2.718359 -30.350853 0.819062 3.209158 59.909901 2.377961 14.789001 -0.714966 1.648200 0.000001 -21.879601 7.548769 -0.197233 -0.653312 8.212550 -0.680920 -25.965215 3.001854 0.760790 4.524303 -0.620325 -3.462505 1.621922 -1.234700 -0.000000 -31.371800
4.210847 17.415487 -3.111294 178.901291 15.347969 -159.362229 -12.512422 -0.324794 -1.544981 -3.654254 -2.762285 -30.816401 0.794407 3.208532 59.963908 2.409347 14.997843 -1.276027 1.554600 0.000000 -21.648099 7.595293 -0.196156 -0.703721 8.209255 -0.896952 -25.446976 2.967150 0.792964 4.303622 -0.684157 -3.777009 1.405975 -1.278101 0.000000 -30.933800
4.277373 17.426054 -3.163869 178.732127 14.898556 -159.466921 -12.446811 -0.340244 -1.522125 -4.031971 -2.840358 -31.244529 0.761016 3.198372 59.883736 2.421754 15.068169 -1.790784 1.451000 0.000000 -21.379600 7.644388 -0.194460 -0.757085 8.201341 -1.138578 -24.948798 2.936412 0.821995 4.104052 -0.739255 -4.036644 1.178093 -1.306700 0.000000 -30.554800
4.342360 17.435750 -3.217291 178.563693 14.471418 -159.566275 -12.377301 -0.352271 -1.488501 -4.411538 -2.946303 -31.640500 0.719247 3.179192 59.672904 2.419465 15.031632 -2.265548 1.343400 -0.000000 -21.045300 7.693757 -0.192389 -0.813104 8.193406 -1.399408 -24.470192 2.910534 0.848932 3.925409 -0.786187 -4.242860 0.926909 -1.320100 -0.000000 -30.226400
4.405604 17.444663 -3.271557 178.401507 14.069212 -159.657275 -12.304959 -0.363091 -1.448084 -4.787652 -3.069839 -32.006200 0.669200 3.151904 59.334435 2.406930 14.919754 -2.711440 1.235100 0.000000 -20.627200 7.740606 -0.190074 -0.869325 8.185629 -1.657288 -24.000765 2.888146 0.875928 3.754633 -0.828201 -4.414311 0.650318 -1.322199 0.000000 -29.941200
4.467128 17.452741 -3.326608 178.245613 13.689856 -159.740082 -12.229693 -0.373294 -1.399550 -5.158466 -3.207395 -32.349310 0.611550 3.116552 58.875964 2.388826 14.764053 -3.139239 1.128300 0.000000 -20.125200 7.784953 -0.188118 -0.925754 8.183035 -1.920453 -23.549546 2.870737 0.902199 3.604970 -0.864159 -4.542017 0.338644 -1.310600 0.000000 -29.675201
4.526894 17.460044 -3.382389 178.099339 13.336086 -159.811907 -12.151714 -0.384560 -1.347562 -5.521744 -3.348850 -32.671481 0.546259 3.074105 58.301430 2.369058 14.590178 -3.561650 1.023301 -0.000000 -19.550000 7.825218 -0.186247 -0.979203 8.182248 -2.163169 -23.105488 2.855435 0.929726 3.459245 -0.898408 -4.652694 0.000562 -1.291600 0.000001 -29.419500
